<svg version="1" xmlns="http://www.w3.org/2000/svg" width="933.333" height="933.333" viewBox="0 0 700.000000 700.000000"><path d="M323.5 36.1c-25 2-56.3 8.8-79.8 17.3-44.6 16.2-82.6 40.4-116.2 74.1-50.3 50.2-80 110.8-90.2 183.5-2.4 17.4-2.4 60.4 0 78 7.5 53.7 26 101.3 55.9 143.4 46.6 65.4 116.8 110.9 195.4 126.5 22.5 4.5 33.9 5.5 61.4 5.5s38.8-1 61.4-5.5c67.4-13.3 129.5-49.1 174.9-100.9 42.1-48 67.3-103.9 76.4-169 2.4-17.5 2.4-60.5 0-78-6.4-46.3-21-87.8-44.1-125.4C556.4 84 442.7 26.4 323.5 36.1zm155 124.5c5.2 2.1 7.7 3.9 12 8.8 3 3.3 6.2 7.5 7 9.2 1.5 3.2 14.5 50.5 21.4 78 14.7 58.3 29.7 140.4 37.6 204.7 3.2 26 2.7 30.6-4.1 39.7-6.1 8-10.2 11.4-17.1 14-8.8 3.4-12.7 3.4-21.8.3-7.4-2.6-8.3-3.2-11.3-7.8-7.9-12-9-15.6-10.7-34.5-3.7-41-15.7-115.2-26.1-161-4.6-20.1-4.5-19.7-5.4-17.9-1.7 3.1-14 35.4-27.5 72.4-7.9 21.4-18.7 50.9-24 65.5-9.5 25.8-20.4 49.8-24.1 53.1-1.1 1-4.8 3.2-8.3 5-6.1 3.2-7.1 3.4-16.5 3.4-8.8 0-10.8-.3-15.8-2.7-4-1.8-6.4-3.8-8.1-6.5-1.3-2.1-17.1-32.6-35.2-67.8-18-35.2-38.4-75-45.3-88.5l-12.7-24.5-.6 6c-.4 3.3-1.9 20.4-3.3 38-1.5 17.6-3.3 39-4.1 47.5-.8 8.5-1.9 24-2.5 34.5-1.1 20.6-3.3 42.4-5.6 55-.7 4.4-1.4 8.5-1.4 9.1 0 1.6-8 14.6-10.9 17.7-2.7 2.9-16.1 7.7-21.7 7.7-3.8 0-17.1-3.7-19.6-5.4-3.3-2.4-11.7-13.6-12.6-17-1.4-4.9.3-31.6 3.7-60.3 1.7-13.6 4.7-42.1 6.6-63.3 2-21.2 5.5-59.7 8-85.5 2.4-25.9 5.4-57.8 6.6-71 2.2-24.6 3.6-31.6 9.1-43.1 2.5-5.4 5.5-7.4 16.2-11 6.5-2.2 8.9-2.5 13.8-2 7.5.7 14.7 4.5 21.3 11.1 4.5 4.5 8.5 11.9 39.2 73.5 42.8 85.7 70.5 140 71.4 140 .3 0 2.1-3.9 3.9-8.8 1.8-4.8 5.9-15.5 9.2-23.7 3.3-8.3 8.5-21.8 11.5-30 3-8.3 9.2-24.5 13.8-36 4.6-11.6 11.3-29.1 14.9-39 3.7-9.9 8.4-22.7 10.6-28.5 2.2-5.8 5.6-15.7 7.6-22 4.9-15.7 7-19.3 16.2-28.4 6.9-6.8 8.7-8 13.3-9.1 8.5-2.1 14.2-1.8 21.4 1.1z"/></svg>