<svg version="1" xmlns="http://www.w3.org/2000/svg" width="666.667" height="666.667" viewBox="0 0 500.000000 500.000000"><path d="M232 25.6C161.4 32.1 99.7 69 61 128c-7.6 11.6-18.6 34-23.3 47.5-4.2 12.2-8 27.3-10.3 42-2.5 15.4-2.5 49.6 0 65 4 25.2 9.9 44 20.6 66C70 393.8 106.2 430 151.5 452c22 10.7 40.8 16.6 66 20.6 15.4 2.5 49.6 2.5 65 0 25.2-4 44-9.9 66-20.6 45.3-22 81.5-58.2 103.5-103.5 10.7-22 16.6-40.8 20.6-66 2.5-15.4 2.5-49.6 0-65-4-25.2-9.9-44-20.6-66-32-65.9-93.1-111.3-166.5-123.6-11.7-1.9-42.7-3.3-53.5-2.3zm110.5 89.8c5.4 2.4 9.4 6.5 12.4 12.5 4.1 7.9 18.6 65 26.2 102.6 9.3 46.5 18.6 108.2 17.5 116.3-.8 5.9-3.7 11.1-8.8 15.9-5.5 5-10.3 6.6-17.7 6.1-6.9-.5-11.1-3.2-15.2-9.7-3.9-6-4.5-8.7-6.4-27.1-1.8-17.5-6.1-46.5-10.6-71-3.5-19.2-9.8-49-10.6-50.4-.8-1.2-7.2 15.1-24.5 62.4-21.5 58.9-26 69.5-31.8 74.4-7.1 5.9-19.9 7-28.3 2.4-4.8-2.7-2.5 1.6-45-81.5-14.4-28.2-26.3-51.1-26.4-50.9-.3.3-7 78.3-8.3 97.6-2.1 32.2-5 43.6-12.6 49.8-10.6 8.8-27.8 6.2-34.9-5.3-2.9-4.7-3-5.3-2.9-15.9.1-6.1 1.6-23.9 3.3-39.6 1.7-15.7 5.8-57.8 9.1-93.5 3.3-35.8 6.5-68 7.1-71.8 2.5-15.3 9.8-22.8 23-23.5 6-.4 7.4-.1 11.3 2.2 2.4 1.4 6.1 4.5 8.1 6.8 2.3 2.7 16.9 30.8 39.5 75.8 19.7 39.3 36.5 72.3 37.3 73.4 1.5 2 .8 3.6 19.9-46.4 17.9-46.7 24.8-65 29.3-78.1 6-17.1 9.6-23.9 15.8-29.5 7.6-6.8 15.4-8.1 24.2-4z"/></svg>