<?xml version="1.0" standalone="no"?>
<!DOCTYPE svg PUBLIC "-//W3C//DTD SVG 20010904//EN"
 "http://www.w3.org/TR/2001/REC-SVG-20010904/DTD/svg10.dtd">
<svg version="1.0" xmlns="http://www.w3.org/2000/svg"
 width="512.000000pt" height="512.000000pt" viewBox="0 0 512.000000 512.000000"
 preserveAspectRatio="xMidYMid meet">
<metadata>
Created by potrace 1.11, written by Peter Selinger 2001-2013
</metadata>
<g transform="translate(0.000000,512.000000) scale(0.100000,-0.100000)"
fill="#000000" stroke="none">
<path d="M3645 4952 c-11 -2 -29 -11 -40 -18 -11 -8 -251 -244 -532 -526
l-513 -512 -273 273 c-151 151 -285 280 -298 286 -99 52 -220 -13 -233 -126
-8 -72 7 -92 296 -381 152 -153 274 -278 270 -279 -4 0 -338 -2 -742 -3 l-735
-2 -60 -24 c-82 -32 -131 -64 -190 -125 -46 -47 -99 -135 -110 -181 -2 -10 -9
-37 -15 -59 -6 -26 -9 -407 -7 -1090 l2 -1050 22 -53 c50 -121 124 -206 237
-268 36 -20 66 -34 66 -31 0 3 21 -1 47 -9 39 -12 309 -14 1737 -11 930 1
1704 6 1719 10 39 11 111 39 117 47 3 3 21 16 40 27 50 31 103 89 144 156 68
114 66 83 66 1214 -1 1121 1 1091 -62 1202 -36 64 -129 158 -179 183 -52 26
-101 45 -134 54 -16 4 -354 9 -750 10 -396 1 -725 3 -732 3 -7 1 217 230 497
510 281 280 510 514 510 520 0 6 4 11 9 11 13 0 31 57 31 97 0 94 -106 170
-205 145z m-920 -1616 c83 -3 164 -9 180 -11 17 -3 43 -7 59 -10 359 -57 489
-195 541 -575 27 -201 27 -888 0 -1030 -2 -9 -6 -41 -9 -71 -8 -72 -47 -201
-81 -265 -72 -139 -233 -232 -446 -260 -24 -3 -55 -7 -69 -10 -153 -25 -1238
-25 -1475 1 -70 8 -117 14 -134 19 -9 3 -27 7 -41 10 -54 9 -171 56 -214 85
-77 53 -164 175 -180 252 -3 13 -12 49 -20 79 -9 30 -18 80 -22 110 -3 30 -8
64 -11 75 -22 104 -22 682 1 965 9 118 50 269 95 355 29 56 98 129 152 163 42
26 151 68 194 75 17 3 57 10 90 15 110 20 129 22 290 28 88 3 161 7 162 8 5 4
813 -2 938 -8z m1471 -490 c62 -29 95 -60 123 -118 40 -84 35 -169 -15 -248
-89 -141 -307 -150 -407 -18 -56 74 -67 176 -29 260 57 127 203 182 328 124z
m-1 -646 c79 -35 139 -114 151 -199 9 -63 -22 -153 -68 -199 -57 -58 -101 -76
-178 -75 -67 0 -77 2 -120 21 -34 15 -62 40 -92 82 -79 112 -46 280 69 351 77
48 159 54 238 19z"/>
</g>
</svg>
